<svg xmlns="http://www.w3.org/2000/svg" width="1237" height="899" viewBox="0 0 1237 899" fill="none">
  <path fill="#f9f8f5" fill-rule="evenodd" d="M 134 239 L 112 335 L 129 372 L 118 460 L 53 499 L 50 531 L 71 574 L 124 609 L 107 651 L 118 690 L 239 720 L 269 791 L 303 789 L 332 719 L 375 695 L 368 735 L 314 802 L 324 838 L 357 862 L 487 874 L 859 811 L 879 795 L 949 801 L 1010 776 L 1059 725 L 1109 753 L 1146 716 L 1132 670 L 1149 645 L 1144 604 L 1122 588 L 1080 600 L 1082 551 L 1123 573 L 1154 559 L 1171 517 L 1154 484 L 1183 469 L 1190 442 L 1146 392 L 1170 330 L 1161 265 L 1085 190 L 934 176 L 815 202 L 786 178 L 743 197 L 687 191 L 729 153 L 735 120 L 672 78 L 632 103 L 639 40 L 604 17 L 508 65 L 514 122 L 467 167 L 512 231 L 501 244 L 412 208 L 318 245 L 316 202 L 290 180 L 167 211 Z M 328 619 L 331 616 L 363 602 L 369 601 L 375 611 L 380 616 L 389 622 L 388 630 L 383 648 L 381 650 L 374 644 L 367 641 L 344 638 L 336 635 L 331 630 Z M 1065 501 L 1070 495 L 1074 493 L 1089 493 L 1090 494 L 1097 494 L 1098 495 L 1105 495 L 1106 496 L 1113 496 L 1114 497 L 1121 497 L 1128 499 L 1140 500 L 1149 505 L 1152 511 L 1152 516 L 1139 547 L 1133 553 L 1123 554 L 1070 520 L 1067 517 L 1064 511 Z M 1170 441 L 1171 445 L 1170 453 L 1164 460 L 1158 463 L 1091 483 L 1063 493 L 1054 492 L 1045 485 L 1041 478 L 1041 471 L 1043 467 L 1049 461 L 1124 407 L 1133 407 L 1143 413 L 1152 420 L 1166 434 Z M 1144 277 L 1150 330 L 1130 376 L 998 468 L 1058 521 L 1064 627 L 1111 606 L 1129 617 L 1124 651 L 1064 656 L 1058 680 L 1123 687 L 1129 707 L 1103 734 L 1055 689 L 1016 746 L 954 781 L 866 769 L 814 699 L 805 769 L 853 772 L 854 793 L 493 855 L 384 852 L 347 834 L 333 802 L 384 748 L 411 615 L 388 570 L 306 605 L 317 644 L 369 671 L 320 703 L 281 776 L 259 713 L 217 684 L 268 625 L 201 685 L 144 685 L 126 653 L 154 604 L 126 580 L 131 515 L 98 567 L 67 522 L 134 487 L 151 360 L 132 330 L 152 245 L 270 200 L 299 226 L 282 306 L 396 229 L 454 239 L 501 278 L 579 217 L 625 217 L 649 243 L 664 215 L 719 204 L 739 231 L 775 196 L 802 228 L 929 195 L 953 209 L 1054 200 L 1104 224 Z M 514 141 L 520 141 L 524 143 L 530 150 L 552 201 L 553 211 L 551 215 L 546 220 L 542 222 L 536 222 L 530 219 L 489 177 L 487 173 L 487 164 L 489 160 L 504 147 Z M 715 123 L 717 128 L 717 133 L 714 140 L 698 154 L 636 202 L 629 206 L 623 207 L 615 204 L 609 198 L 607 194 L 607 189 L 613 176 L 651 109 L 660 98 L 665 96 L 673 97 L 708 116 Z M 607 37 L 612 39 L 617 44 L 619 54 L 599 154 L 592 195 L 587 202 L 578 206 L 574 206 L 566 202 L 562 196 L 525 85 L 525 76 L 534 65 L 594 39 Z M 430 306 L 421 303 L 405 303 L 404 324 L 398 331 L 393 331 L 389 326 L 391 305 L 384 307 L 355 326 L 338 348 L 330 366 L 328 379 L 345 376 L 350 383 L 344 391 L 327 394 L 327 402 L 332 418 L 338 427 L 353 440 L 368 446 L 380 447 L 381 429 L 385 424 L 390 423 L 395 427 L 394 446 L 406 443 L 429 429 L 448 406 L 454 394 L 459 373 L 438 377 L 434 373 L 434 367 L 439 362 L 460 359 L 460 345 L 456 332 L 448 319 Z M 406 334 L 418 340 L 427 349 L 430 355 L 433 370 L 432 371 L 432 379 L 429 389 L 422 401 L 412 411 L 405 416 L 388 421 L 381 421 L 373 419 L 365 415 L 356 406 L 351 396 L 350 392 L 350 375 L 353 365 L 360 353 L 373 341 L 389 334 Z M 1010 585 L 1008 585 L 950 643 L 909 687 L 906 687 L 896 677 L 880 657 L 861 677 L 873 693 L 908 732 L 910 732 L 934 708 L 1022 613 L 1024 608 Z M 622 706 L 619 734 L 618 735 L 615 771 L 614 772 L 614 781 L 636 779 L 637 778 L 657 777 L 658 775 Z M 640 533 L 621 533 L 586 537 L 565 542 L 560 546 L 552 567 L 541 609 L 531 660 L 529 680 L 553 595 L 568 554 L 572 550 L 580 547 L 629 537 Z M 908 532 L 856 530 L 853 536 L 838 591 L 852 573 L 872 554 L 889 542 L 904 534 L 908 533 Z M 517 503 L 480 504 L 479 505 L 456 508 L 436 514 L 430 522 L 425 533 L 417 557 L 414 571 L 416 573 L 424 567 L 439 527 L 444 521 L 474 512 L 508 506 Z M 787 322 L 751 360 L 779 385 L 780 385 L 781 382 L 781 373 L 782 372 Z M 247 232 L 225 237 L 193 248 L 181 254 L 177 258 L 170 279 L 168 291 L 166 296 L 164 312 L 163 313 L 163 318 L 164 319 L 171 314 L 174 308 L 181 278 L 186 263 L 189 260 L 237 237 L 239 237 Z M 964 231 L 984 229 L 985 228 L 996 228 L 997 227 L 1022 227 L 1049 232 L 1066 239 L 1081 249 L 1092 260 L 1100 271 L 1098 264 L 1090 250 L 1077 237 L 1059 227 L 1050 224 L 1035 221 L 1004 221 L 1003 222 L 985 224 L 970 228 Z M 382 260 L 379 260 L 366 265 L 351 273 L 331 287 L 310 307 L 300 320 L 292 333 L 283 353 L 279 369 L 292 344 L 316 311 L 334 293 L 345 284 L 365 270 Z M 808 525 L 799 524 L 798 525 L 784 525 L 783 526 L 767 527 L 754 530 L 749 534 L 744 547 L 739 567 L 739 572 L 734 596 L 733 619 L 744 575 L 756 540 L 763 535 Z M 444 598 L 441 601 L 435 619 L 433 630 L 428 646 L 428 650 L 425 658 L 420 683 L 419 694 L 417 700 L 414 724 L 418 714 L 419 707 L 421 703 L 426 682 L 432 664 L 434 653 L 438 642 L 438 638 L 440 634 L 445 609 L 445 600 Z M 966 549 L 947 549 L 932 552 L 921 556 L 896 570 L 885 579 L 868 598 L 856 618 L 852 631 L 863 613 L 871 603 L 891 583 L 904 573 L 917 565 L 937 556 L 950 552 Z M 617 241 L 610 238 L 596 238 L 583 241 L 564 250 L 551 259 L 536 273 L 521 294 L 515 309 L 533 286 L 546 273 L 561 261 L 577 251 L 591 245 L 601 242 Z M 721 532 L 702 533 L 701 534 L 696 534 L 693 536 L 694 544 L 709 579 L 710 579 L 712 565 Z M 922 221 L 896 224 L 867 231 L 863 231 L 836 239 L 833 241 L 828 242 L 826 244 L 827 243 L 835 243 L 841 241 L 847 241 L 857 238 L 866 237 L 906 227 L 922 222 Z M 182 344 L 179 351 L 172 382 L 172 388 L 171 389 L 168 415 L 167 416 L 166 436 L 179 383 L 181 365 L 182 364 Z M 713 447 L 710 478 L 734 475 L 734 473 L 724 462 Z M 703 229 L 685 232 L 675 237 L 670 257 L 666 292 L 672 274 L 679 243 L 682 240 L 699 233 Z M 292 450 L 288 450 L 272 455 L 242 468 L 281 458 L 290 454 L 292 452 Z M 615 484 L 614 479 L 606 486 L 591 495 L 619 491 Z M 595 510 L 575 511 L 574 512 L 562 513 L 563 517 L 565 516 L 582 514 L 584 513 L 582 513 L 581 512 L 582 511 L 595 512 Z M 494 481 L 489 476 L 485 475 L 477 483 Z M 485 795 L 473 798 L 486 797 Z"/>
  <path fill="#aba7a8" fill-rule="evenodd" d="M 135 234 L 111 333 L 128 373 L 116 461 L 54 495 L 49 534 L 70 575 L 122 610 L 106 648 L 120 695 L 239 721 L 269 793 L 305 790 L 335 718 L 372 698 L 366 734 L 313 799 L 323 839 L 357 864 L 485 876 L 881 797 L 943 804 L 1011 777 L 1060 727 L 1101 754 L 1141 730 L 1147 606 L 1119 586 L 1082 597 L 1084 554 L 1118 574 L 1152 564 L 1173 518 L 1158 485 L 1187 467 L 1191 438 L 1148 391 L 1172 332 L 1162 263 L 1089 190 L 944 175 L 817 200 L 783 176 L 742 195 L 694 187 L 733 151 L 735 115 L 678 77 L 635 95 L 639 34 L 600 16 L 505 67 L 512 120 L 466 164 L 510 232 L 501 241 L 425 206 L 321 241 L 316 198 L 292 179 L 174 207 Z M 133 239 L 167 210 L 290 179 L 317 202 L 318 244 L 412 207 L 501 243 L 511 231 L 466 167 L 513 122 L 507 65 L 604 16 L 640 40 L 632 102 L 672 77 L 736 120 L 730 153 L 687 190 L 743 196 L 786 177 L 815 201 L 934 175 L 1085 189 L 1162 265 L 1171 330 L 1147 392 L 1191 442 L 1184 469 L 1155 484 L 1172 508 L 1155 559 L 1123 574 L 1082 552 L 1080 599 L 1122 587 L 1145 604 L 1150 645 L 1133 670 L 1147 716 L 1109 754 L 1059 726 L 1010 777 L 949 802 L 879 796 L 859 812 L 487 875 L 357 863 L 323 838 L 313 802 L 367 735 L 374 695 L 333 719 L 303 790 L 269 792 L 239 721 L 117 690 L 106 651 L 123 609 L 70 574 L 49 531 L 52 499 L 117 460 L 128 372 L 111 335 Z M 1010 583 L 944 648 L 909 686 L 906 686 L 880 656 L 860 677 L 882 705 L 908 733 L 911 733 L 1024 612 L 1025 608 Z M 1010 584 L 1025 608 L 1023 613 L 935 708 L 910 733 L 908 733 L 884 707 L 860 677 L 880 656 L 897 677 L 906 686 L 909 686 L 949 643 L 1008 584 Z M 329 619 L 331 628 L 336 634 L 344 637 L 367 640 L 374 643 L 381 649 L 382 648 L 387 630 L 388 622 L 380 617 L 374 611 L 369 602 L 358 605 L 335 616 L 333 616 Z M 330 620 L 344 612 L 346 612 L 362 604 L 367 603 L 372 610 L 387 623 L 387 629 L 383 639 L 382 646 L 381 647 L 368 639 L 340 635 L 334 631 L 330 623 L 331 622 Z M 597 508 L 567 511 L 561 513 L 562 517 L 564 518 L 565 517 L 570 517 L 563 518 L 561 513 L 562 512 L 574 511 L 575 510 L 587 510 L 588 509 L 595 509 L 596 510 L 595 513 L 582 512 L 585 513 L 582 515 L 572 516 L 597 513 Z M 708 117 L 673 98 L 665 97 L 673 98 L 708 117 L 715 125 L 716 128 L 715 136 L 713 140 L 698 153 L 633 203 L 627 205 L 636 201 L 713 140 L 716 133 L 716 128 L 714 123 Z M 912 532 L 897 531 L 908 531 L 909 533 L 894 540 L 872 555 L 853 573 L 839 591 L 838 587 L 852 537 L 843 567 L 837 595 L 848 579 L 871 556 L 894 540 Z M 329 515 L 330 520 L 338 518 L 332 515 Z M 329 516 L 332 515 L 336 518 L 330 520 Z M 1071 674 L 1065 675 L 1059 680 L 1058 677 L 1060 669 L 1059 676 L 1052 695 L 1046 707 L 1034 725 L 1009 751 L 991 764 L 981 769 L 1000 758 L 1022 739 L 1035 724 L 1043 712 L 1053 693 L 1055 688 L 1056 689 L 1059 680 L 1063 676 Z M 488 170 L 488 173 L 490 177 L 530 218 L 536 221 L 542 221 L 550 215 L 552 211 L 552 204 L 538 171 L 552 204 L 552 211 L 550 215 L 542 221 L 533 220 L 490 177 L 488 173 Z M 788 320 L 750 359 L 756 366 L 781 387 L 781 383 L 781 385 L 779 386 L 750 360 L 787 321 L 788 322 L 787 335 Z M 128 485 L 118 486 L 79 504 L 77 504 L 70 509 L 68 512 L 68 515 L 68 512 L 70 509 L 75 505 L 118 486 Z M 621 704 L 620 717 L 620 710 L 622 705 L 659 775 L 657 778 L 648 778 L 660 777 L 622 704 Z M 556 228 L 550 231 L 532 244 L 514 262 L 501 279 L 492 267 L 477 253 L 454 240 L 446 238 L 454 240 L 477 253 L 490 265 L 498 276 L 502 279 L 515 261 L 532 244 L 541 237 Z M 392 304 L 384 306 L 372 312 L 363 318 L 349 331 L 337 348 L 330 363 L 328 372 L 329 366 L 337 348 L 351 329 L 366 316 L 384 306 L 391 304 L 392 305 L 392 310 Z M 406 335 L 418 341 L 425 348 L 431 361 L 432 370 L 431 361 L 426 349 L 418 341 L 406 335 L 389 335 L 373 342 L 361 353 L 354 365 L 351 375 L 352 396 L 357 406 L 365 414 L 373 418 L 388 420 L 405 415 L 421 401 L 428 389 L 431 372 L 428 389 L 420 402 L 408 413 L 388 420 L 376 419 L 367 415 L 354 401 L 351 392 L 351 375 L 354 365 L 362 352 L 373 342 L 389 335 Z M 773 198 L 768 200 L 738 233 L 758 210 L 768 200 Z M 696 550 L 709 582 L 710 582 L 712 570 L 711 579 L 709 580 Z M 128 659 L 128 663 L 131 671 L 135 677 L 144 684 L 154 688 L 163 690 L 177 690 L 163 690 L 154 688 L 144 684 L 131 671 L 129 667 Z M 128 556 L 127 580 L 130 587 L 136 592 L 142 594 L 147 599 L 155 604 L 140 621 L 136 627 L 130 641 L 138 624 L 144 616 L 156 604 L 151 602 L 142 594 L 133 590 L 129 585 L 127 580 Z M 794 210 L 801 228 L 803 230 L 809 224 L 802 229 Z M 593 183 L 591 195 L 583 203 L 587 201 L 590 197 L 592 192 Z M 367 240 L 342 252 L 315 271 L 292 294 L 282 307 L 281 305 L 280 309 L 293 293 L 319 268 L 342 252 Z M 821 716 L 825 726 L 833 739 L 851 758 L 874 772 L 894 779 L 874 772 L 861 765 L 850 757 L 833 739 L 825 726 Z M 487 796 L 486 795 L 487 796 L 486 798 L 480 798 L 479 799 L 473 799 L 472 798 L 476 796 L 479 796 L 462 800 L 487 798 Z M 266 633 L 260 647 L 248 659 L 231 668 L 240 664 L 253 655 L 260 647 Z M 385 744 L 385 748 L 383 750 L 365 761 L 345 780 L 340 787 L 334 802 L 334 813 L 340 826 L 352 837 L 361 842 L 347 833 L 338 823 L 334 813 L 334 802 L 336 795 L 345 780 L 360 765 L 380 751 L 383 750 L 385 748 Z M 1130 701 L 1130 697 L 1127 691 L 1123 688 L 1118 687 L 1123 688 L 1129 694 L 1130 701 L 1128 707 L 1117 727 L 1109 733 L 1103 733 L 1095 728 L 1058 695 L 1057 691 L 1058 695 L 1090 724 L 1103 733 L 1109 733 L 1117 727 L 1124 715 Z"/>
  <path fill="#040302" fill-rule="evenodd" d="M 1142 279 L 1105 228 L 1055 203 L 952 212 L 927 198 L 802 232 L 774 199 L 739 235 L 719 207 L 666 217 L 650 248 L 623 219 L 582 219 L 502 281 L 463 246 L 404 230 L 342 254 L 280 312 L 296 225 L 269 203 L 155 245 L 135 329 L 154 359 L 136 490 L 69 519 L 98 564 L 134 510 L 129 580 L 158 604 L 130 646 L 144 682 L 199 683 L 271 623 L 220 685 L 260 710 L 283 774 L 316 704 L 366 672 L 314 644 L 303 604 L 391 568 L 389 592 L 414 614 L 387 748 L 336 801 L 344 828 L 383 849 L 495 852 L 852 791 L 853 775 L 802 770 L 814 691 L 864 765 L 955 778 L 1027 731 L 1062 653 L 1127 643 L 1119 609 L 1062 629 L 1053 516 L 994 467 L 1123 381 L 1147 331 Z M 489 797 L 487 800 L 467 801 L 466 802 L 459 802 L 458 801 L 460 798 L 472 796 L 481 793 L 487 793 Z M 347 812 L 353 789 L 380 764 L 384 765 L 380 779 L 384 797 L 398 806 L 423 811 L 486 809 L 708 783 L 844 782 L 725 798 L 526 836 L 459 844 L 388 839 L 363 829 Z M 621 701 L 623 702 L 643 742 L 662 776 L 660 779 L 626 782 L 625 783 L 616 783 L 615 784 L 611 783 L 617 720 L 618 719 L 619 704 Z M 1116 620 L 1118 637 L 1115 640 L 1092 642 L 1091 643 L 1081 643 L 1080 644 L 1067 644 L 1065 642 L 1068 638 L 1092 628 L 1101 623 L 1108 621 L 1113 618 Z M 290 591 L 292 594 L 297 631 L 304 650 L 310 657 L 321 664 L 338 668 L 349 668 L 352 671 L 320 686 L 306 699 L 297 716 L 287 757 L 285 759 L 283 757 L 277 723 L 268 702 L 260 694 L 247 688 L 232 685 L 230 682 L 256 668 L 270 654 L 279 633 L 287 592 Z M 991 541 L 1011 552 L 1027 567 L 1036 580 L 1045 602 L 1048 643 L 1044 664 L 1030 697 L 1014 719 L 995 737 L 981 747 L 946 762 L 906 765 L 885 760 L 867 751 L 849 735 L 841 724 L 828 688 L 827 667 L 831 641 L 847 604 L 871 574 L 893 556 L 911 546 L 944 536 L 971 536 Z M 723 529 L 724 534 L 721 541 L 714 568 L 712 584 L 709 585 L 690 541 L 690 536 L 694 532 L 697 531 Z M 914 531 L 912 534 L 894 542 L 871 558 L 850 579 L 839 595 L 836 598 L 834 596 L 846 550 L 852 531 L 854 528 L 890 528 L 891 529 L 906 529 Z M 397 520 L 388 538 L 341 556 L 287 581 L 242 606 L 206 630 L 179 657 L 177 667 L 182 673 L 181 675 L 160 675 L 144 665 L 141 659 L 141 646 L 151 626 L 179 599 L 210 579 L 252 558 L 315 535 L 359 524 L 388 519 Z M 829 515 L 798 629 L 774 759 L 675 772 L 605 639 L 585 766 L 499 788 L 526 625 L 552 534 L 654 522 L 716 658 L 724 584 L 740 525 Z M 327 514 L 329 512 L 339 516 L 340 519 L 329 522 L 327 520 Z M 123 496 L 125 498 L 125 500 L 115 517 L 99 548 L 95 551 L 80 520 L 80 517 L 100 506 Z M 535 493 L 538 502 L 502 648 L 483 767 L 479 771 L 395 791 L 392 785 L 398 741 L 419 634 L 431 589 L 445 581 L 407 589 L 399 587 L 402 567 L 416 524 L 424 509 L 435 502 L 484 494 Z M 623 491 L 621 494 L 614 494 L 613 495 L 592 497 L 591 498 L 584 498 L 583 497 L 586 494 L 595 490 L 606 483 L 614 476 L 617 477 L 618 484 Z M 472 484 L 485 472 L 489 473 L 498 482 L 496 484 L 479 485 L 478 486 L 474 486 Z M 1047 548 L 1041 563 L 1017 538 L 987 521 L 948 509 L 897 502 L 741 503 L 636 510 L 563 520 L 559 513 L 832 474 L 940 468 L 985 476 L 1019 493 L 1040 516 Z M 712 443 L 738 474 L 737 477 L 712 480 L 711 481 L 709 481 L 707 479 L 710 445 Z M 789 317 L 790 318 L 790 327 L 789 328 L 788 343 L 786 352 L 783 387 L 781 389 L 757 369 L 748 359 Z M 416 238 L 420 246 L 442 249 L 466 261 L 482 276 L 493 292 L 502 314 L 506 335 L 506 365 L 502 387 L 492 415 L 478 439 L 440 478 L 412 494 L 390 501 L 345 501 L 328 495 L 313 485 L 316 436 L 311 429 L 303 427 L 266 437 L 260 413 L 260 392 L 265 366 L 275 340 L 290 315 L 325 278 L 372 250 Z M 617 228 L 626 233 L 636 247 L 643 299 L 588 345 L 584 342 L 587 303 L 579 304 L 569 314 L 545 359 L 539 384 L 539 405 L 547 419 L 559 420 L 576 412 L 612 380 L 616 380 L 636 407 L 637 414 L 605 450 L 577 471 L 548 481 L 523 478 L 506 468 L 493 448 L 493 434 L 510 395 L 516 361 L 515 330 L 506 297 L 525 269 L 558 241 L 588 228 Z M 272 212 L 276 219 L 243 336 L 215 466 L 305 437 L 302 522 L 143 582 L 139 576 L 146 492 L 170 333 L 151 341 L 145 335 L 163 253 L 169 245 L 184 238 Z M 1082 225 L 1108 249 L 1122 279 L 1123 316 L 1110 349 L 1081 384 L 1031 421 L 964 453 L 949 458 L 932 458 L 930 452 L 959 285 L 946 289 L 939 285 L 950 224 L 959 219 L 989 212 L 1038 210 L 1066 217 Z M 781 210 L 801 267 L 722 347 L 753 379 L 792 410 L 797 420 L 753 474 L 693 397 L 686 468 L 678 473 L 632 481 L 629 476 L 635 434 L 647 408 L 638 393 L 640 376 L 637 390 L 629 381 L 641 363 L 642 368 L 665 230 L 702 218 L 717 218 L 705 296 L 776 209 Z M 936 208 L 939 219 L 929 274 L 923 279 L 855 295 L 852 316 L 854 320 L 921 302 L 924 309 L 917 349 L 847 372 L 843 393 L 933 366 L 935 373 L 921 438 L 791 472 L 789 448 L 807 419 L 805 410 L 792 396 L 812 237 L 867 220 Z M 402 266 L 397 268 L 395 291 L 359 309 L 336 332 L 323 354 L 316 382 L 289 388 L 286 392 L 288 398 L 314 394 L 319 417 L 330 436 L 353 453 L 369 458 L 380 458 L 384 479 L 390 477 L 392 458 L 421 448 L 448 425 L 464 398 L 471 370 L 490 365 L 493 361 L 492 356 L 472 357 L 471 340 L 467 327 L 459 313 L 449 303 L 429 293 L 404 290 L 405 267 Z M 430 303 L 441 309 L 452 320 L 462 341 L 464 359 L 437 367 L 438 374 L 460 370 L 462 372 L 460 385 L 451 406 L 434 428 L 420 439 L 395 449 L 392 447 L 391 426 L 384 429 L 384 441 L 381 450 L 368 449 L 353 443 L 342 435 L 332 423 L 324 401 L 326 391 L 344 388 L 347 384 L 345 379 L 325 381 L 326 370 L 335 348 L 358 320 L 382 305 L 394 303 L 392 326 L 398 328 L 401 325 L 404 300 L 420 300 Z M 1013 569 L 1007 568 L 993 579 L 907 668 L 882 641 L 877 641 L 849 671 L 847 679 L 852 687 L 903 745 L 913 747 L 928 734 L 992 667 L 1037 613 L 1036 603 L 1020 576 Z M 1010 581 L 1027 608 L 1026 612 L 945 700 L 911 735 L 908 735 L 880 705 L 858 677 L 875 657 L 880 654 L 902 680 L 908 684 Z M 608 40 L 596 41 L 534 68 L 528 76 L 528 85 L 566 198 L 573 203 L 584 201 L 588 197 L 591 188 L 597 150 L 616 55 L 616 48 L 614 44 Z M 598 54 L 600 56 L 600 59 L 598 65 L 596 85 L 585 150 L 581 183 L 579 190 L 575 191 L 569 176 L 560 143 L 543 92 L 543 89 L 540 83 L 540 79 L 559 69 L 573 64 L 592 55 Z M 712 123 L 708 119 L 673 100 L 664 99 L 660 101 L 648 119 L 616 176 L 610 189 L 611 197 L 615 201 L 621 204 L 626 204 L 633 201 L 709 142 L 714 134 L 714 127 Z M 701 129 L 701 131 L 695 137 L 666 159 L 629 190 L 624 193 L 621 191 L 622 186 L 634 167 L 652 134 L 664 114 L 668 110 L 693 123 Z M 1168 444 L 1162 433 L 1148 420 L 1133 410 L 1130 409 L 1124 410 L 1049 464 L 1044 471 L 1044 478 L 1046 482 L 1052 488 L 1056 490 L 1064 490 L 1104 476 L 1107 476 L 1161 459 L 1167 453 Z M 1156 444 L 1155 448 L 1140 453 L 1137 453 L 1100 466 L 1097 466 L 1063 479 L 1058 479 L 1054 475 L 1059 469 L 1129 419 L 1141 428 Z M 409 338 L 401 336 L 395 336 L 380 340 L 369 347 L 359 359 L 353 374 L 353 393 L 355 399 L 360 407 L 370 415 L 380 418 L 389 418 L 403 414 L 413 407 L 423 395 L 429 380 L 429 374 L 430 373 L 429 361 L 423 348 L 418 343 Z M 362 384 L 380 382 L 381 381 L 386 381 L 388 383 L 387 384 L 387 397 L 386 398 L 386 409 L 385 410 L 376 409 L 367 403 L 360 390 L 360 386 Z M 420 375 L 421 376 L 420 384 L 414 395 L 404 405 L 394 409 L 392 406 L 393 405 L 394 381 L 396 379 L 401 379 Z M 389 345 L 390 346 L 390 357 L 389 358 L 388 373 L 383 375 L 377 375 L 362 378 L 360 376 L 361 371 L 368 358 L 379 348 L 386 345 Z M 397 345 L 398 344 L 403 344 L 412 348 L 418 355 L 421 361 L 422 368 L 418 370 L 396 372 L 395 371 L 395 361 L 396 360 Z M 1067 503 L 1067 512 L 1073 519 L 1123 551 L 1131 551 L 1136 547 L 1149 516 L 1148 508 L 1145 505 L 1136 502 L 1092 497 L 1091 496 L 1083 496 L 1082 495 L 1073 496 Z M 1077 506 L 1078 505 L 1086 505 L 1087 506 L 1095 506 L 1110 509 L 1136 512 L 1138 514 L 1138 516 L 1129 538 L 1127 540 L 1125 540 L 1079 511 L 1077 509 Z M 1026 281 L 1013 280 L 1009 318 L 1008 319 L 1007 333 L 1005 341 L 1005 348 L 1004 349 L 1002 366 L 999 375 L 1019 361 L 1036 344 L 1043 334 L 1048 323 L 1050 314 L 1050 307 L 1047 297 L 1041 289 Z M 511 145 L 499 154 L 491 162 L 489 167 L 490 173 L 492 177 L 533 218 L 542 219 L 546 217 L 550 211 L 550 203 L 525 147 L 521 144 Z M 515 155 L 517 155 L 521 161 L 524 170 L 540 204 L 539 208 L 537 208 L 500 169 L 500 167 Z M 1060 681 L 1058 686 L 1058 690 L 1060 695 L 1089 721 L 1103 731 L 1109 731 L 1115 727 L 1128 702 L 1128 696 L 1123 690 L 1077 678 L 1073 676 L 1067 676 Z M 1068 687 L 1070 685 L 1072 685 L 1090 691 L 1097 692 L 1107 696 L 1110 696 L 1116 698 L 1117 703 L 1108 719 L 1104 720 L 1074 695 L 1068 689 Z"/>
  <path fill="#f8287a" fill-rule="evenodd" d="M 415 240 L 370 253 L 345 266 L 316 288 L 288 321 L 266 370 L 262 413 L 267 435 L 303 425 L 313 428 L 318 435 L 315 485 L 345 499 L 390 499 L 414 491 L 437 478 L 473 443 L 488 419 L 500 387 L 504 365 L 504 335 L 501 318 L 488 287 L 461 260 L 442 251 L 420 248 Z M 403 264 L 407 267 L 406 289 L 429 291 L 454 305 L 470 329 L 474 356 L 492 354 L 495 361 L 491 367 L 473 371 L 464 403 L 443 433 L 423 449 L 394 459 L 392 477 L 384 481 L 380 478 L 380 460 L 355 456 L 342 449 L 327 435 L 317 417 L 313 396 L 287 400 L 284 392 L 289 386 L 314 382 L 321 354 L 337 328 L 366 302 L 393 291 L 395 268 Z M 384 258 L 385 259 L 382 262 L 357 277 L 336 293 L 317 312 L 295 342 L 279 372 L 278 365 L 284 346 L 295 325 L 310 305 L 330 286 L 350 272 L 367 263 L 377 259 Z M 272 214 L 187 239 L 165 253 L 147 336 L 151 339 L 169 331 L 172 336 L 151 466 L 143 580 L 300 522 L 303 438 L 213 467 L 241 336 L 274 219 Z M 204 542 L 206 542 L 208 544 L 206 547 L 202 546 L 202 544 Z M 178 536 L 179 539 L 177 541 L 176 538 Z M 213 535 L 215 537 L 214 540 L 211 539 L 211 537 Z M 229 537 L 230 534 L 233 535 L 231 538 Z M 196 534 L 198 536 L 196 539 L 194 537 Z M 238 534 L 239 531 L 243 532 L 241 535 Z M 248 526 L 251 527 L 251 529 L 249 531 L 246 530 L 246 528 Z M 268 520 L 270 521 L 269 525 L 266 523 Z M 279 517 L 281 519 L 279 522 L 277 520 Z M 262 514 L 263 516 L 261 518 L 259 516 Z M 294 450 L 291 455 L 285 458 L 266 464 L 251 467 L 247 469 L 242 470 L 240 469 L 242 466 L 273 453 L 292 448 Z M 207 443 L 208 440 L 211 442 L 209 444 Z M 182 342 L 184 345 L 184 360 L 183 361 L 182 375 L 174 413 L 172 417 L 169 432 L 165 441 L 164 440 L 164 429 L 165 428 L 165 420 L 166 419 L 171 379 L 178 349 Z M 232 340 L 233 342 L 231 344 L 229 342 Z M 246 276 L 249 275 L 250 278 L 247 280 Z M 248 230 L 249 232 L 244 236 L 219 248 L 208 252 L 188 263 L 184 273 L 180 292 L 174 312 L 166 320 L 163 320 L 162 319 L 162 309 L 163 308 L 164 298 L 169 277 L 176 257 L 180 253 L 189 248 L 223 236 Z M 1089 232 L 1066 219 L 1038 212 L 989 214 L 963 220 L 951 226 L 941 285 L 946 287 L 960 283 L 961 289 L 932 456 L 946 457 L 964 451 L 1029 420 L 1073 389 L 1102 358 L 1119 324 L 1122 291 L 1111 257 Z M 990 429 L 991 426 L 994 427 L 992 430 Z M 1018 412 L 1020 412 L 1022 414 L 1019 417 L 1016 415 Z M 1027 406 L 1029 408 L 1028 410 L 1025 409 Z M 1034 403 L 1035 406 L 1032 408 L 1031 405 Z M 1042 398 L 1043 400 L 1041 402 L 1039 400 Z M 1053 390 L 1054 387 L 1056 387 L 1058 389 L 1055 392 Z M 1073 372 L 1074 375 L 1072 377 L 1070 374 Z M 1077 367 L 1079 366 L 1081 368 L 1079 370 Z M 975 338 L 977 339 L 976 342 L 973 341 Z M 1026 279 L 1040 286 L 1048 295 L 1052 307 L 1051 320 L 1042 339 L 1030 353 L 1018 364 L 1006 373 L 997 378 L 996 375 L 998 372 L 1001 361 L 1001 355 L 1004 341 L 1011 279 L 1014 277 L 1015 278 Z M 962 230 L 982 223 L 1008 219 L 1031 219 L 1052 223 L 1072 232 L 1079 237 L 1091 249 L 1098 260 L 1102 274 L 1101 275 L 1091 261 L 1076 247 L 1056 236 L 1047 233 L 1026 229 L 991 229 L 964 233 Z M 779 211 L 748 242 L 704 300 L 716 220 L 711 218 L 667 230 L 640 388 L 649 414 L 637 434 L 632 479 L 684 468 L 692 394 L 753 472 L 796 418 L 720 347 L 799 267 Z M 704 228 L 705 230 L 700 234 L 685 240 L 681 243 L 672 280 L 666 295 L 665 294 L 666 274 L 667 273 L 671 243 L 674 236 L 678 233 L 690 229 Z M 936 210 L 850 226 L 813 239 L 794 396 L 806 408 L 809 419 L 792 445 L 791 470 L 919 438 L 932 368 L 905 374 L 842 398 L 845 371 L 915 349 L 921 304 L 850 323 L 852 295 L 927 274 Z M 890 431 L 893 432 L 893 434 L 891 436 L 888 435 L 888 433 Z M 903 430 L 905 432 L 904 434 L 901 433 Z M 891 418 L 893 420 L 891 422 L 889 420 Z M 911 411 L 914 413 L 913 416 L 909 415 L 909 413 Z M 919 393 L 920 395 L 918 397 L 916 395 Z M 924 221 L 923 223 L 918 225 L 864 239 L 832 245 L 825 245 L 824 244 L 825 242 L 837 237 L 840 237 L 853 232 L 869 228 L 873 228 L 898 222 L 911 221 L 912 220 L 923 220 Z M 617 230 L 593 229 L 558 243 L 530 266 L 508 297 L 517 330 L 518 361 L 510 402 L 495 434 L 495 448 L 502 461 L 523 476 L 548 479 L 575 470 L 615 438 L 635 413 L 616 382 L 612 382 L 579 412 L 559 422 L 547 421 L 537 405 L 537 384 L 544 356 L 558 327 L 572 308 L 582 300 L 589 303 L 588 343 L 641 299 L 634 247 Z M 522 465 L 524 464 L 526 467 L 524 468 Z M 591 445 L 593 448 L 590 450 L 589 447 Z M 619 241 L 618 243 L 605 243 L 587 248 L 571 256 L 548 273 L 533 288 L 519 307 L 515 311 L 514 310 L 515 303 L 521 291 L 531 277 L 550 258 L 563 249 L 584 239 L 598 236 L 608 236 L 615 238 Z M 388 347 L 383 348 L 378 351 L 369 360 L 364 368 L 363 376 L 386 372 Z M 419 378 L 396 381 L 395 386 L 395 407 L 402 404 L 410 397 L 417 386 Z M 363 386 L 362 387 L 363 393 L 367 400 L 371 404 L 377 407 L 384 408 L 385 383 Z M 399 346 L 397 370 L 420 367 L 416 355 L 410 349 Z M 640 368 L 639 368 L 632 379 L 632 382 L 636 387 Z"/>
  <path fill="#5a3d37" fill-rule="evenodd" d="M 272 213 L 184 239 L 164 253 L 146 335 L 151 340 L 171 333 L 147 492 L 140 576 L 143 581 L 301 522 L 305 438 L 214 466 L 242 336 L 275 219 Z M 272 213 L 275 219 L 242 336 L 214 467 L 303 437 L 306 443 L 301 522 L 143 581 L 140 576 L 147 492 L 171 332 L 151 340 L 146 336 L 164 253 L 187 238 Z M 403 265 L 396 268 L 393 292 L 366 303 L 338 328 L 322 354 L 315 382 L 289 387 L 285 392 L 287 399 L 313 395 L 318 417 L 328 435 L 342 448 L 355 455 L 380 459 L 381 478 L 384 480 L 391 477 L 394 458 L 423 448 L 442 433 L 463 403 L 472 371 L 491 366 L 494 361 L 492 355 L 473 356 L 469 329 L 454 306 L 435 294 L 405 289 L 406 267 Z M 402 265 L 406 267 L 405 290 L 429 292 L 449 302 L 460 313 L 468 327 L 473 357 L 492 355 L 494 361 L 490 366 L 472 370 L 465 398 L 449 425 L 421 449 L 392 459 L 391 477 L 384 480 L 381 478 L 380 459 L 369 459 L 353 454 L 329 436 L 318 417 L 314 395 L 288 399 L 285 392 L 289 387 L 315 382 L 320 359 L 335 332 L 359 308 L 378 297 L 392 293 L 396 268 Z M 617 229 L 588 229 L 558 242 L 526 269 L 507 297 L 516 330 L 517 361 L 511 395 L 494 434 L 494 448 L 505 466 L 523 477 L 548 480 L 577 470 L 605 449 L 636 414 L 635 407 L 616 381 L 612 381 L 576 413 L 559 421 L 547 420 L 538 405 L 538 384 L 544 359 L 568 314 L 579 303 L 588 303 L 585 340 L 588 344 L 642 299 L 635 247 L 630 238 Z M 617 229 L 635 247 L 642 299 L 588 344 L 585 342 L 588 303 L 582 301 L 573 308 L 559 327 L 545 356 L 538 384 L 538 405 L 547 420 L 559 421 L 579 411 L 612 381 L 616 381 L 636 413 L 615 439 L 575 471 L 548 480 L 523 477 L 510 470 L 494 448 L 494 434 L 509 402 L 517 361 L 516 330 L 507 297 L 529 266 L 558 242 L 593 228 Z M 1010 582 L 908 685 L 901 680 L 880 655 L 878 655 L 859 677 L 861 681 L 908 734 L 911 734 L 944 700 L 1025 612 L 1026 608 Z M 1010 582 L 1026 608 L 1025 612 L 911 734 L 908 734 L 881 705 L 859 677 L 880 655 L 906 685 L 909 685 L 943 648 Z M 700 129 L 693 124 L 668 111 L 665 114 L 623 186 L 622 191 L 624 192 L 629 189 L 666 158 L 695 136 L 700 131 Z M 700 130 L 691 139 L 667 157 L 630 188 L 624 192 L 622 190 L 622 188 L 665 114 L 668 111 L 696 126 Z M 123 497 L 100 507 L 98 509 L 96 509 L 81 517 L 81 520 L 95 550 L 98 548 L 114 517 L 124 500 Z M 123 497 L 124 500 L 96 550 L 94 548 L 86 531 L 81 517 Z M 1069 687 L 1069 689 L 1104 719 L 1107 719 L 1116 703 L 1116 699 L 1107 697 L 1097 693 L 1090 692 L 1080 688 L 1072 686 Z M 1069 687 L 1072 686 L 1090 692 L 1097 693 L 1107 697 L 1110 697 L 1115 699 L 1116 702 L 1108 717 L 1106 719 L 1104 719 L 1084 701 L 1069 689 Z M 515 156 L 501 167 L 501 169 L 537 207 L 539 207 L 537 199 L 523 170 L 518 157 Z M 515 156 L 517 156 L 519 159 L 522 168 L 539 204 L 538 207 L 501 169 L 506 163 Z M 389 346 L 386 346 L 379 349 L 369 358 L 363 368 L 361 375 L 362 377 L 387 373 L 388 358 L 389 357 Z M 388 346 L 389 347 L 389 356 L 388 357 L 387 372 L 382 374 L 376 374 L 363 377 L 362 376 L 362 371 L 368 360 L 378 350 L 383 347 Z M 362 385 L 361 390 L 368 403 L 376 408 L 385 409 L 386 384 L 387 383 L 386 382 L 381 382 L 380 383 Z M 363 385 L 368 385 L 381 382 L 386 383 L 386 396 L 385 397 L 385 408 L 384 409 L 377 408 L 371 405 L 366 400 L 361 389 L 361 387 Z M 398 345 L 396 371 L 403 371 L 404 370 L 421 368 L 420 361 L 415 352 L 412 349 L 406 346 Z M 398 346 L 402 345 L 410 348 L 417 355 L 421 367 L 417 369 L 397 371 L 396 370 L 396 361 L 397 360 Z M 379 780 L 382 796 L 401 808 L 460 812 L 695 785 L 837 782 L 577 825 L 725 797 L 843 782 L 695 785 L 460 812 L 401 808 L 386 800 Z M 1046 548 L 1043 525 L 1031 505 L 1010 488 L 975 475 L 1010 488 L 1037 513 L 1046 537 L 1042 562 L 1021 540 L 987 520 L 925 504 L 879 500 L 785 500 L 677 506 L 786 500 L 917 503 L 987 520 L 1017 537 L 1041 562 Z M 668 228 L 664 241 L 670 227 L 711 217 L 717 220 L 704 299 L 777 210 L 782 213 L 800 267 L 721 347 L 744 372 L 797 417 L 721 347 L 800 267 L 781 211 L 776 210 L 705 297 L 716 218 Z M 1088 230 L 1038 211 L 989 213 L 951 224 L 940 285 L 959 284 L 932 457 L 944 457 L 931 453 L 960 284 L 940 285 L 950 226 L 1004 211 L 1038 211 L 1071 220 L 1095 236 L 1112 257 L 1121 279 L 1123 309 L 1107 352 L 1073 390 L 1013 430 L 947 457 L 1039 415 L 1081 383 L 1109 349 L 1122 316 L 1122 284 L 1111 255 Z M 416 239 L 396 243 L 415 239 L 420 247 L 448 252 L 473 268 L 489 287 L 505 335 L 501 387 L 489 419 L 474 443 L 437 479 L 390 500 L 345 500 L 314 485 L 317 435 L 309 427 L 295 428 L 305 426 L 316 433 L 314 485 L 349 501 L 385 501 L 412 493 L 449 470 L 481 433 L 501 387 L 505 335 L 492 292 L 466 262 L 442 250 L 420 247 Z M 396 520 L 315 536 L 210 580 L 157 620 L 142 652 L 145 638 L 159 618 L 219 575 L 312 537 L 396 521 L 386 538 L 297 575 L 214 623 L 181 652 L 176 662 L 179 675 L 152 671 L 142 654 L 145 665 L 160 674 L 181 674 L 176 667 L 178 657 L 206 629 L 287 580 L 388 537 Z M 328 514 L 328 520 L 329 521 L 339 519 L 339 517 L 329 513 Z M 328 515 L 332 514 L 339 518 L 330 521 L 328 519 Z M 290 592 L 287 599 L 289 592 L 303 650 L 321 665 L 349 671 L 323 683 L 307 696 L 294 721 L 285 756 L 270 703 L 255 690 L 232 682 L 256 669 L 269 657 L 281 630 L 286 601 L 280 633 L 271 654 L 256 669 L 231 682 L 260 693 L 269 702 L 278 723 L 285 758 L 296 716 L 305 699 L 320 685 L 351 671 L 321 665 L 303 650 L 296 631 Z M 1155 444 L 1141 429 L 1129 420 L 1155 444 L 1154 447 L 1097 465 L 1063 478 L 1058 478 L 1055 475 L 1067 464 L 1127 421 L 1071 461 L 1055 475 L 1058 478 L 1063 478 L 1097 465 L 1155 447 Z M 936 209 L 817 234 L 806 282 L 812 239 L 818 234 L 901 214 L 938 211 L 925 277 L 853 295 L 850 322 L 921 303 L 916 349 L 845 372 L 842 397 L 932 367 L 922 432 L 915 440 L 922 432 L 933 367 L 842 393 L 847 371 L 916 349 L 921 303 L 854 321 L 851 316 L 855 294 L 928 274 Z M 598 55 L 598 64 L 599 56 L 595 55 L 541 79 L 541 83 L 575 190 L 578 190 L 580 178 L 579 188 L 576 190 L 571 179 L 541 79 L 592 56 Z M 663 243 L 643 368 L 641 364 L 630 381 L 637 389 L 631 379 L 640 367 L 639 393 L 648 408 L 647 417 L 636 434 L 630 478 L 637 480 L 685 468 L 693 396 L 753 473 L 692 395 L 685 468 L 637 480 L 630 478 L 636 434 L 648 414 L 639 388 Z M 380 765 L 367 775 L 354 789 L 350 795 L 348 801 L 348 812 L 350 816 L 363 828 L 388 838 L 401 840 L 388 838 L 363 828 L 351 817 L 348 812 L 348 801 L 354 789 L 371 772 L 382 765 L 383 766 L 381 773 L 383 765 Z M 1026 280 L 1014 278 L 1012 279 L 1010 301 L 1013 279 L 1022 279 L 1037 285 L 1043 290 L 1050 302 L 1051 314 L 1049 323 L 1044 334 L 1037 344 L 1019 362 L 999 376 L 998 373 L 1002 361 L 1004 342 L 1002 361 L 997 377 L 1006 372 L 1029 353 L 1041 339 L 1050 320 L 1051 307 L 1047 295 L 1040 287 Z M 805 284 L 793 398 L 804 407 L 808 419 L 790 448 L 789 469 L 791 471 L 848 455 L 794 471 L 789 469 L 791 445 L 808 419 L 805 408 L 793 398 Z M 394 244 L 363 255 L 337 270 L 304 299 L 285 324 L 272 349 L 262 384 L 261 413 L 267 437 L 293 429 L 268 437 L 264 429 L 261 413 L 261 392 L 265 370 L 273 347 L 287 321 L 307 296 L 333 273 L 370 252 Z M 560 227 L 550 232 L 532 245 L 516 261 L 502 280 L 497 276 L 495 272 L 484 260 L 477 254 L 464 246 L 477 254 L 495 272 L 500 280 L 502 280 L 517 260 L 531 246 L 550 232 Z M 1078 506 L 1079 510 L 1125 539 L 1128 538 L 1137 516 L 1136 513 L 1126 512 L 1135 513 L 1137 516 L 1130 531 L 1129 536 L 1125 539 L 1085 514 L 1078 507 L 1079 506 L 1086 506 L 1087 507 L 1095 507 L 1110 510 L 1124 511 L 1110 510 L 1095 507 L 1087 507 L 1086 506 Z M 665 217 L 660 219 L 656 223 L 654 227 L 650 246 L 648 245 L 645 239 L 649 247 L 651 246 L 653 231 L 656 223 L 660 219 Z M 218 654 L 206 663 L 201 668 L 201 670 L 206 672 L 202 670 L 201 668 Z M 1115 620 L 1113 619 L 1083 633 L 1068 639 L 1066 642 L 1068 643 L 1066 641 L 1070 638 L 1072 638 L 1111 620 L 1114 620 L 1116 623 L 1116 638 L 1115 639 L 1093 641 L 1115 639 L 1117 637 Z M 420 376 L 395 381 L 395 385 L 396 380 L 407 379 L 413 377 L 419 377 L 420 378 L 418 386 L 411 397 L 405 403 L 395 408 L 394 407 L 394 387 L 394 405 L 393 406 L 394 408 L 404 404 L 413 395 L 419 384 Z M 204 543 L 203 546 L 206 546 L 207 544 Z M 448 409 L 442 418 L 428 432 L 416 440 L 434 427 Z"/>
  <path fill="#02c0f7" fill-rule="evenodd" d="M 828 516 L 741 526 L 726 582 L 717 662 L 653 523 L 553 535 L 526 633 L 501 788 L 583 767 L 605 637 L 676 771 L 773 758 L 793 644 Z M 758 746 L 760 747 L 759 750 L 756 748 Z M 564 745 L 566 747 L 564 749 L 562 747 Z M 712 743 L 713 746 L 711 748 L 709 745 Z M 753 739 L 755 741 L 752 743 L 751 741 Z M 578 722 L 580 724 L 579 726 L 576 725 Z M 641 532 L 641 535 L 589 546 L 572 551 L 570 553 L 556 590 L 529 683 L 527 681 L 539 612 L 551 566 L 560 544 L 570 539 L 590 535 L 615 532 Z M 809 523 L 810 525 L 807 527 L 765 536 L 759 538 L 757 540 L 746 573 L 735 617 L 733 621 L 731 619 L 731 613 L 732 612 L 732 601 L 733 600 L 735 581 L 743 546 L 749 532 L 753 529 L 764 526 L 791 524 L 792 523 Z M 535 495 L 491 495 L 442 502 L 428 507 L 419 521 L 405 562 L 401 587 L 449 580 L 433 589 L 405 708 L 395 789 L 481 767 L 497 665 L 537 500 Z M 446 761 L 449 760 L 450 762 L 448 764 Z M 444 597 L 446 599 L 446 611 L 442 631 L 434 658 L 432 669 L 422 701 L 419 715 L 414 727 L 413 726 L 414 711 L 415 710 L 418 687 L 424 657 L 434 618 L 440 600 Z M 519 503 L 517 505 L 459 517 L 443 523 L 437 535 L 426 566 L 417 574 L 415 574 L 413 572 L 416 556 L 424 532 L 431 518 L 437 512 L 454 507 L 477 504 L 478 503 L 486 503 L 487 502 L 506 502 L 510 501 Z"/>
  <path fill="#f5ca04" fill-rule="evenodd" d="M 349 812 L 363 827 L 388 837 L 420 842 L 461 842 L 538 832 L 725 796 L 835 782 L 708 785 L 486 811 L 423 813 L 398 808 L 381 796 L 378 788 L 381 766 L 355 789 L 349 801 Z M 1045 548 L 1040 520 L 1020 496 L 985 478 L 941 470 L 867 472 L 598 508 L 598 512 L 760 500 L 897 500 L 948 507 L 987 519 L 1021 539 L 1042 561 Z M 970 487 L 972 489 L 971 491 L 968 490 Z M 395 521 L 354 527 L 312 538 L 252 560 L 210 581 L 178 602 L 154 625 L 143 646 L 145 663 L 152 670 L 160 673 L 179 674 L 175 662 L 180 652 L 214 622 L 259 594 L 297 574 L 386 537 Z M 289 593 L 282 630 L 274 651 L 260 667 L 248 675 L 233 682 L 255 689 L 264 695 L 271 703 L 279 723 L 285 755 L 293 721 L 303 700 L 313 689 L 323 682 L 348 671 L 321 666 L 312 661 L 305 654 L 297 639 Z M 286 678 L 287 683 L 285 685 L 284 684 L 284 679 Z M 290 674 L 292 672 L 295 673 L 293 675 Z M 276 675 L 278 672 L 281 672 L 283 674 L 280 676 Z M 286 663 L 287 668 L 285 670 L 284 669 L 284 664 Z M 598 56 L 592 57 L 542 79 L 546 95 L 552 111 L 552 114 L 558 130 L 564 153 L 566 156 L 572 179 L 576 189 L 578 188 L 581 171 L 583 151 L 586 138 L 586 132 L 589 119 L 589 112 L 591 105 L 591 99 L 594 86 L 594 79 Z M 1154 444 L 1143 432 L 1128 421 L 1074 461 L 1067 465 L 1058 472 L 1056 475 L 1058 477 L 1063 477 L 1097 464 L 1103 463 L 1137 451 L 1154 446 Z M 699 130 L 696 127 L 668 112 L 623 188 L 623 190 L 624 191 L 630 187 L 667 156 L 691 138 Z M 123 498 L 82 517 L 83 522 L 96 549 L 121 504 Z M 1079 507 L 1085 513 L 1125 538 L 1128 536 L 1129 531 L 1136 516 L 1135 514 L 1125 512 Z M 1070 687 L 1070 689 L 1084 700 L 1105 718 L 1107 717 L 1115 702 L 1115 700 L 1097 694 L 1090 693 L 1080 689 Z M 515 157 L 506 164 L 502 169 L 538 206 L 517 157 Z M 1115 623 L 1114 621 L 1111 621 L 1072 639 L 1070 639 L 1067 642 L 1069 643 L 1070 642 L 1092 641 L 1093 640 L 1115 638 Z"/>
  <path fill="#5ed62e" fill-rule="evenodd" d="M 994 544 L 973 538 L 952 537 L 915 546 L 882 566 L 850 602 L 833 640 L 829 662 L 829 682 L 833 702 L 842 723 L 849 733 L 867 749 L 882 757 L 904 763 L 919 764 L 947 760 L 978 747 L 994 736 L 1014 717 L 1029 696 L 1038 677 L 1045 652 L 1047 636 L 1045 609 L 1039 590 L 1026 568 L 1010 553 Z M 976 733 L 979 734 L 977 737 L 974 735 Z M 984 728 L 987 727 L 988 729 L 986 731 Z M 994 719 L 997 720 L 995 723 L 992 722 Z M 1013 567 L 1021 575 L 1032 592 L 1039 607 L 1038 615 L 1011 648 L 964 699 L 916 747 L 912 749 L 905 748 L 857 696 L 846 680 L 846 673 L 866 649 L 878 639 L 883 640 L 907 666 L 989 581 L 1004 568 Z M 970 549 L 969 551 L 953 553 L 929 561 L 913 569 L 892 584 L 872 604 L 860 620 L 851 635 L 849 634 L 856 614 L 866 598 L 875 587 L 896 568 L 919 555 L 933 550 L 948 547 L 966 547 Z"/>
</svg>
